Coordinates
version=1
nRows=17
nColumns=34
inDegrees=yes

Units are S.I. units (second, meters, Newtons, ...)
If the header above contains a line with 'inDegrees', this indicates whether rotational values are in degrees (yes) or radians (no).

endheader
time	pelvis_tilt	pelvis_list	pelvis_rotation	pelvis_tx	pelvis_ty	pelvis_tz	hip_flexion_r	hip_adduction_r	hip_rotation_r	knee_angle_r	ankle_angle_r	subtalar_angle_r	mtp_angle_r	hip_flexion_l	hip_adduction_l	hip_rotation_l	knee_angle_l	ankle_angle_l	subtalar_angle_l	mtp_angle_l	lumbar_extension	lumbar_bending	lumbar_rotation	arm_flex_r	arm_add_r	arm_rot_r	elbow_flex_r	pro_sup_r	arm_flex_l	arm_add_l	arm_rot_l	elbow_flex_l	pro_sup_l
      1.93333330	      8.59099038	      2.72812111	    -10.24953856	     -4.36199994	      1.00428079	     -0.01785294	    -11.40861146	     -1.06148976	     -9.50676647	     20.60328000	     13.46406931	    -30.11388335	      0.00000000	     13.93355872	      5.99576704	     11.33207934	     18.81908826	     -7.37353121	    -20.10620461	      0.00000000	     -6.68994838	     -6.04842732	      7.21600466	     44.42502228	     -2.31622540	     18.09034136	    150.00035077	     93.66989117	      7.62714302	     -5.07376299	     29.02534174	     18.19288583	     58.30244086
      1.95000000	      8.65959727	      2.58917250	    -10.61374430	     -4.36104988	      1.00553877	     -0.01801606	    -11.75648921	     -1.08681480	     -9.27676357	     20.34603940	     13.32980484	    -29.74458059	      0.00000000	     13.82525259	      5.88351998	     11.04905058	     18.94438692	     -7.39292833	    -20.29541398	      0.00000000	     -6.58979525	     -5.78464076	      7.67612277	     44.33778657	     -2.41655961	     18.21259351	    150.00035077	     93.57413650	      7.60778974	     -4.90775055	     28.73747143	     18.49185526	     58.15608060
      1.96666670	      8.64956512	      2.53326108	    -10.76673667	     -4.36006672	      1.00638372	     -0.01828381	    -11.80756049	     -1.14297745	     -9.30244291	     20.37220492	     13.29644918	    -29.72769163	      0.00000000	     13.77599444	      5.86802466	     11.05130632	     18.99842343	     -7.41091924	    -20.29250590	      0.00000000	     -6.53393973	     -5.74660200	      7.68342571	     44.33958532	     -2.41719564	     18.21933658	    150.00035077	     93.56831743	      7.64160604	     -4.87239074	     28.71633544	     18.53040268	     58.14714409
      1.98333330	      9.18289821	      2.32484056	    -11.16442708	     -4.35910094	      1.00699577	     -0.01858892	    -12.29992859	     -1.24718904	     -9.23009262	     20.46100602	     12.03884512	    -30.16940919	      0.00000000	     12.90207485	      5.70619595	     10.70453618	     18.70607029	     -7.74059488	    -20.84956980	      0.00000000	     -7.37731175	     -5.49869665	      8.00775634	     44.89488282	     -2.33497647	     18.55986943	    150.00035077	     92.49321607	      7.22872576	     -4.61276323	     24.66753515	     20.51567451	     56.66800316
      2.00000000	      9.11463744	      2.18681468	    -11.21006333	     -4.35717162	      1.00609719	     -0.01902649	    -12.09459357	     -1.21559761	     -9.45073177	     20.67615459	     11.84616943	    -30.13325420	      0.00000000	     12.78972689	      5.54956248	     10.57612769	     18.55490388	     -7.61990001	    -20.95800675	      0.00000000	     -7.37080685	     -5.33302663	      8.14057585	     44.96200827	     -2.29282366	     18.55445867	    150.00035077	     92.47126553	      7.54512808	     -4.55884678	     24.59805036	     20.65882110	     56.66279169
      2.01666670	      9.05453529	      2.06032523	    -11.27771813	     -4.35535499	      1.00549675	     -0.01916588	    -11.87446050	     -1.21368152	     -9.70961890	     20.93430633	     11.57872547	    -30.11078327	      0.00000000	     12.65218435	      5.39413853	     10.39818969	     18.32306908	     -7.47631319	    -21.10539155	      0.00000000	     -7.36349434	     -5.13166159	      8.31046550	     45.09743692	     -2.27986239	     18.51701734	    150.00035077	     92.44488706	      7.83262229	     -4.48761948	     24.51281939	     20.83090839	     56.65432046
      2.03333330	      9.00270833	      1.96810067	    -11.32944168	     -4.35366351	      1.00541353	     -0.01924811	    -11.67611448	     -1.21734223	     -9.89633965	     21.15722965	     11.35609324	    -30.13225997	      0.00000000	     12.51360358	      5.28450293	     10.22252199	     18.06969608	     -7.33088406	    -21.25466659	      0.00000000	     -7.37298629	     -4.98825949	      8.46087708	     45.22738089	     -2.30355241	     18.46187770	    150.00035077	     92.41507810	      8.04089819	     -4.41048880	     24.41552899	     21.00313321	     56.64257197
      2.05000000	      8.96611940	      1.92681466	    -11.37771134	     -4.35174913	      1.00595930	     -0.01947274	    -11.57191203	     -1.24243839	     -9.95530772	     21.21423342	     11.25804550	    -30.14375894	      0.00000000	     12.39815852	      5.25480356	     10.10439744	     17.93561660	     -7.25074432	    -21.34198089	      0.00000000	     -7.33359835	     -4.91997449	      8.43341334	     45.25710344	     -2.33709428	     18.43178453	    150.00035077	     92.40058673	      8.21131798	     -4.35416247	     24.36306915	     21.11189927	     56.63646910
      2.06666670	      9.03450153	      1.96579775	    -11.58700616	     -4.34964193	      1.00701923	     -0.01933784	    -11.55058353	     -1.40413466	     -9.83825461	     21.37190205	     10.51475544	    -30.38597554	      0.00000000	     12.04633239	      5.27034402	      9.63972916	     17.56109498	     -7.29416745	    -21.53346755	      0.00000000	     -7.43261080	     -5.08770860	      8.96507952	     45.15999800	     -2.64339841	     18.13194438	    150.00035077	     92.20190254	      8.26881749	     -4.18892391	     23.62191166	     21.78797476	     56.52744315
      2.08333330	      8.96207549	      1.94640044	    -11.59086803	     -4.34732914	      1.00706638	     -0.01931451	    -11.58668859	     -1.40298352	     -9.83653380	     21.39256794	     10.51513762	    -30.38909977	      0.00000000	     12.03048237	      5.30062775	      9.62395443	     17.56290162	     -7.28915805	    -21.54001404	      0.00000000	     -7.44397947	     -5.08230979	      8.95659934	     45.15634597	     -2.64577401	     18.13011557	    150.00035077	     92.20092383	      8.28072689	     -4.18930946	     23.61763667	     21.79219017	     56.52702950
      2.10000000	      8.96426302	      2.09427524	    -11.61587523	     -4.34523231	      1.00656529	     -0.01921241	    -11.77148282	     -1.59274398	     -9.71760370	     21.42753482	     10.46405630	    -30.43108571	      0.00000000	     11.95956073	      5.50406684	      9.20966362	     17.51578592	     -7.02587971	    -21.86840948	      0.00000000	     -7.38448326	     -5.23149270	      8.77671175	     44.82336463	     -2.63563032	     18.07075892	    150.00035077	     92.12986415	      8.21934526	     -4.21336159	     23.31176138	     21.91244083	     56.48743520
      2.11666670	      8.93283632	      2.15525383	    -11.48831100	     -4.34402169	      1.00642580	     -0.01934482	    -11.89666787	     -1.60167143	     -9.58346671	     21.55704915	     10.45750758	    -30.39229327	      0.00000000	     11.98134536	      5.64208818	      9.13473435	     17.49517225	     -7.00562919	    -21.90015975	      0.00000000	     -7.32480902	     -5.21905105	      8.71098299	     44.79026432	     -2.63653334	     18.06249913	    150.00035077	     92.12194437	      8.27539956	     -4.15393627	     23.28057546	     21.95719649	     56.48417750
      2.13333330	      8.57079147	      2.45754775	    -11.62412599	     -4.34282145	      1.00545243	     -0.01892911	    -11.34158792	     -1.88545254	     -9.13772901	     22.11254939	     11.53963491	    -29.32407114	      0.00000000	     12.47243109	      5.90973746	      8.79205118	     17.58785105	     -6.89196640	    -22.05193623	      0.00000000	     -6.75448675	     -5.63698552	      8.66403643	     44.13443728	     -2.61745579	     17.29866456	    150.00035077	     91.43153408	      7.70761443	     -4.00622008	     20.43635319	     22.91841142	     56.20565024
      2.15000000	      8.59034121	      2.57786302	    -11.51733150	     -4.34192212	      1.00477178	     -0.01863414	    -11.44290444	     -1.89789956	     -8.69168956	     22.18843959	     11.75667189	    -29.26391892	      0.00000000	     12.51764692	      6.11534141	      8.84631905	     17.62565103	     -6.84968935	    -22.05161379	      0.00000000	     -6.80110083	     -5.79726674	      8.47285438	     44.04893552	     -2.54717006	     17.34848884	    150.00035077	     91.39628204	      7.77903072	     -4.02412522	     20.33820722	     22.90192072	     56.22592476
      2.16666670	      8.57879678	      2.63612046	    -11.44572037	     -4.34031020	      1.00364509	     -0.01814208	    -11.54517363	     -1.91988431	     -8.55486174	     22.23159507	     11.81203895	    -29.23383448	      0.00000000	     12.52448349	      6.21389584	      8.77012026	     17.61754472	     -6.81149671	    -22.09413331	      0.00000000	     -6.73047688	     -5.77082209	      8.38300287	     44.02225433	     -2.55809110	     17.34929924	    150.00035077	     91.38933726	      7.82050804	     -4.00017753	     20.32124153	     22.91664357	     56.23027467
      2.18333330	      8.51002627	      2.74238268	    -11.52012541	     -4.33818001	      1.00316848	     -0.01746198	    -11.69398740	     -1.98596696	     -8.21725220	     22.01992200	     12.07778142	    -29.16660688	      0.00000000	     12.52340071	      6.31828662	      8.57071103	     17.58995003	     -6.66063055	    -22.25922645	      0.00000000	     -6.62056109	     -5.97183129	      8.22354746	     43.86438562	     -2.60752110	     17.35096818	    150.00035077	     91.36609040	      7.65595168	     -3.95783850	     20.27637247	     22.87715310	     56.24235190
      2.20000000	      8.44519014	      2.73647206	    -11.54211972	     -4.33709689	      1.00404956	     -0.01731941	    -11.73159358	     -1.99025961	     -8.21584032	     22.03280734	     12.08425074	    -29.16719149	      0.00000000	     12.50867001	      6.32663670	      8.56626199	     17.59684059	     -6.65958532	    -22.26136472	      0.00000000	     -6.62177460	     -5.97292443	      8.21930341	     43.85825006	     -2.60982110	     17.35049866	    150.00035077	     91.36550866	      7.65558697	     -3.95836575	     20.27483363	     22.87717154	     56.24260775
